<?xml version="1.0" encoding="UTF-8"?><svg id="uuid-6a677915-0b7e-4cbb-a784-532ef22fcd05" xmlns="http://www.w3.org/2000/svg" viewBox="0 0 87.55 96"><path d="M52.75,7.76l-6.98-4.03-3.33-1.92c-2.47-1.43-5.63-.58-7.06,1.89l-3.47,6.01c-1.43,2.47-.58,5.63,1.89,7.06l5.96,3.44s0,0,0,0l4.35,2.51c.07.04.15.02.19-.05l2.51-4.35s0,0,0,0l3.47-6.01s0,0,0,0l2.51-4.35c.04-.07.02-.15-.05-.19Z" fill="#231f20" stroke="#fff" stroke-miterlimit="10"/><rect x="34.01" y="20.17" width="3.12" height="60.72" fill="#231f20" stroke="#fff" stroke-miterlimit="10"/><path d="M84.62,5.45c-3.64-1.97-7.82-3.1-12.25-3.1-14.23,0-25.76,11.53-25.76,25.76,0,9.6,5.25,17.96,13.03,22.39L84.62,5.45Z" fill="#231f20" stroke="#fff" stroke-miterlimit="10"/><path d="M77.27,19.34c-.08-.04-.69-.39-.77-.42-14.36-6.27-25.77-7.17-27.29-4.14-1.96,3.93,5.73,14.61,19.36,20.9l8.7-16.34Z" fill="#231f20" stroke="#fff" stroke-miterlimit="10"/><polygon points="10.58 92.52 35.32 70.51 61.46 93.77 64.76 90.84 35.52 64.83 7.13 90.08 10.58 92.52" fill="#231f20" stroke="#fff" stroke-miterlimit="10"/></svg>