<?xml version="1.0" encoding="UTF-8"?><svg id="uuid-4372e28d-e7d9-4cf5-a876-6d3785f0a21c" xmlns="http://www.w3.org/2000/svg" viewBox="0 0 78.97 93.84"><path d="M46.43,7.15l-6.98-4.03-3.33-1.92c-2.47-1.43-5.63-.58-7.06,1.89l-3.47,6.01c-1.43,2.47-.58,5.63,1.89,7.06l5.96,3.44s0,0,0,0l4.35,2.51c.07.04.15.02.19-.05l2.51-4.35s0,0,0,0l3.47-6.01s0,0,0,0l2.51-4.35c.04-.07.02-.15-.05-.19Z" fill="#231f20" stroke="#fff" stroke-miterlimit="10"/><rect x="27.68" y="19.56" width="3.12" height="60.72" fill="#231f20" stroke="#fff" stroke-miterlimit="10"/><path d="M78.29,4.84c-3.64-1.97-7.82-3.1-12.25-3.1-14.23,0-25.76,11.53-25.76,25.76,0,9.6,5.25,17.96,13.03,22.39L78.29,4.84Z" fill="#231f20" stroke="#fff" stroke-miterlimit="10"/><path d="M70.95,18.73c-.08-.04-.69-.39-.77-.42-14.36-6.27-25.77-7.17-27.29-4.14-1.96,3.93,5.73,14.61,19.36,20.9l8.7-16.34Z" fill="#231f20" stroke="#fff" stroke-miterlimit="10"/><polygon points="4.26 91.91 28.99 69.91 55.14 93.17 58.44 90.23 29.19 64.22 .8 89.47 4.26 91.91" fill="#231f20" stroke="#fff" stroke-miterlimit="10"/></svg>